<svg width="16" height="16" viewBox="0 0 16 16" fill="none" xmlns="http://www.w3.org/2000/svg">
<path d="M7.08913 0.552822C7.32861 -0.184227 8.37134 -0.184227 8.61082 0.552822L9.9155 4.56823C10.0226 4.89784 10.3298 5.12101 10.6763 5.12101H14.8984C15.6734 5.12101 15.9956 6.1127 15.3686 6.56822L11.9529 9.04988C11.6725 9.2536 11.5552 9.61469 11.6623 9.94431L12.967 13.9597C13.2065 14.6968 12.3629 15.3097 11.7359 14.8541L8.3202 12.3725C8.03981 12.1688 7.66014 12.1688 7.37975 12.3725L3.96404 14.8541C3.33707 15.3097 2.49349 14.6968 2.73297 13.9597L4.03765 9.94431C4.14475 9.61469 4.02742 9.2536 3.74703 9.04988L0.331329 6.56822C-0.295642 6.1127 0.0265784 5.12101 0.801557 5.12101H5.0236C5.37018 5.12101 5.67735 4.89784 5.78445 4.56823L7.08913 0.552822Z" fill="#FFC71E"/>
</svg>
